<svg width="48" height="48" viewBox="0 0 48 48" fill="none" xmlns="http://www.w3.org/2000/svg">
<path d="M7 40C6.2 40 5.5 39.7 4.9 39.1C4.3 38.5 4 37.8 4 37V11C4 10.2 4.3 9.5 4.9 8.9C5.5 8.3 6.2 8 7 8H41C41.8 8 42.5 8.3 43.1 8.9C43.7 9.5 44 10.2 44 11V37C44 37.8 43.7 38.5 43.1 39.1C42.5 39.7 41.8 40 41 40H7ZM41 13.75L24.8 24.35C24.6667 24.4167 24.5417 24.475 24.425 24.525C24.3083 24.575 24.1667 24.6 24 24.6C23.8333 24.6 23.6917 24.575 23.575 24.525C23.4583 24.475 23.3333 24.4167 23.2 24.35L7 13.75V37H41V13.75ZM24 21.9L40.8 11H7.25L24 21.9ZM7 14.1V12.134V12.1705V11V12.15V12.1045V14.1Z" fill="url(#paint0_linear_77_435)"/>
<defs>
<linearGradient id="paint0_linear_77_435" x1="24" y1="8" x2="24" y2="40" gradientUnits="userSpaceOnUse">
<stop stop-color="#154078"/>
<stop offset="1" stop-color="#00D9FF"/>
</linearGradient>
</defs>
</svg>
