<svg width="32" height="32" viewBox="0 0 32 32" fill="none" xmlns="http://www.w3.org/2000/svg">
<path fill-rule="evenodd" clip-rule="evenodd" d="M14.9334 4.37332H11.7867C10.0489 4.37332 8.64005 5.78213 8.64005 7.51999C8.64005 9.25785 10.0489 10.6667 11.7867 10.6667H14.9334V4.37332ZM14.9334 2.23999H17.0667H20.2134C23.1295 2.23999 25.4933 4.60392 25.4933 7.51999C25.4933 9.24082 24.6702 10.7694 23.396 11.7333C24.6702 12.6973 25.4933 14.2258 25.4933 15.9467C25.4933 18.8627 23.1295 21.2267 20.2134 21.2267C19.0343 21.2267 17.9455 20.8402 17.0667 20.187V21.2267V24.3733C17.0667 27.2894 14.7028 29.6533 11.7867 29.6533C8.87064 29.6533 6.50671 27.2894 6.50671 24.3733C6.50671 22.6524 7.32993 21.1239 8.60404 20.16C7.32993 19.196 6.50671 17.6675 6.50671 15.9467C6.50671 14.2258 7.32995 12.6973 8.60408 11.7333C7.32995 10.7694 6.50671 9.24082 6.50671 7.51999C6.50671 4.60392 8.87064 2.23999 11.7867 2.23999H14.9334ZM17.0667 4.37332V10.6667H20.2134C21.9513 10.6667 23.3599 9.25785 23.3599 7.51999C23.3599 5.78213 21.9513 4.37332 20.2134 4.37332H17.0667ZM11.7867 19.0933H14.9334V15.9548V15.9467V15.9386V12.8H11.7867C10.0489 12.8 8.64005 14.2088 8.64005 15.9467C8.64005 17.6804 10.0421 19.0866 11.7742 19.0933L11.7867 19.0933ZM8.64005 24.3733C8.64005 22.6396 10.0421 21.2334 11.7742 21.2267L11.7867 21.2267H14.9334V24.3733C14.9334 26.1112 13.5246 27.52 11.7867 27.52C10.0489 27.52 8.64005 26.1112 8.64005 24.3733ZM17.0667 15.9404C17.0701 14.2054 18.4776 12.8 20.2134 12.8C21.9513 12.8 23.3599 14.2088 23.3599 15.9467C23.3599 17.6845 21.9513 19.0933 20.2134 19.0933C18.4776 19.0933 17.0701 17.6879 17.0667 15.9529V15.9404Z" fill="white"/>
</svg>
