<svg width="72" height="72" viewBox="0 0 72 72" fill="none" xmlns="http://www.w3.org/2000/svg">
<path d="M35.4269 1.43989H35.6947C42.1517 1.43989 48.1939 3.20533 53.3693 6.27829L53.2109 6.18901C58.5993 9.33973 62.9625 13.7029 66.024 18.9244L66.1133 19.0914C69.1085 24.1861 70.8768 30.3119 70.8768 36.8495C70.8768 52.4188 60.8457 65.6495 46.895 70.4245L46.6445 70.4994C46.463 70.557 46.2557 70.5887 46.0426 70.5887C45.576 70.5887 45.144 70.4332 44.7955 70.174L44.8013 70.1769C44.4326 69.8457 44.2022 69.3676 44.2022 68.8348C44.2022 68.8204 44.2022 68.806 44.2022 68.7944V68.7973C44.2022 68.7052 44.2099 67.5282 44.2253 65.2665C44.2406 63.0047 44.2483 60.9369 44.2483 59.0629C44.2685 58.8469 44.28 58.5993 44.28 58.3458C44.28 56.0649 43.3498 54.0028 41.8493 52.5138C43.6291 52.3381 45.2362 52.0444 46.7971 51.6354L46.5782 51.6844C48.2285 51.2236 49.6685 50.6101 51.0048 49.8354L50.9155 49.8844C52.3786 49.078 53.617 48.0527 54.6365 46.8373L54.6537 46.8172C55.7251 45.4463 56.5632 43.8335 57.0729 42.0796L57.0989 41.9788C57.7008 40.0117 58.0464 37.7509 58.0464 35.4095C58.0464 35.2799 58.0464 35.1474 58.0435 35.0178V35.038C58.0435 34.9746 58.0464 34.9026 58.0464 34.8306C58.0464 31.2364 56.6582 27.9676 54.3917 25.5282L54.4003 25.5369C54.8842 24.2697 55.1635 22.8066 55.1635 21.2773C55.1635 19.4082 54.7459 17.6399 54 16.053L54.0317 16.1279C53.7005 16.0645 53.3232 16.0271 52.9344 16.0271C51.9725 16.0271 51.0653 16.2517 50.2589 16.6492L50.2934 16.6348C48.6576 17.2396 47.2579 17.925 45.9389 18.7257L46.0483 18.6623L44.2944 19.7682C41.639 19.0079 38.5891 18.5701 35.4384 18.5701C32.2877 18.5701 29.2378 19.0079 26.3462 19.8258L26.5795 19.7682C26.088 19.4303 25.4342 19.0146 24.6182 18.5212C23.544 17.9049 22.2739 17.3087 20.9549 16.8076L20.7648 16.7442C19.921 16.3007 18.9216 16.0415 17.8589 16.0415C17.5018 16.0415 17.1504 16.0703 16.8106 16.1279L16.848 16.1221C16.1338 17.6313 15.7162 19.4025 15.7162 21.2716C15.7162 22.8009 15.9955 24.2668 16.5082 25.6175L16.4794 25.534C14.2186 27.9647 12.8333 31.2335 12.8333 34.8277C12.8333 34.8997 12.8333 34.9746 12.8362 35.0466V35.0351C12.8333 35.1474 12.8333 35.277 12.8333 35.4095C12.8333 37.7394 13.1789 39.9916 13.824 42.1113L13.7808 41.9471C14.3251 43.7989 15.1517 45.4089 16.2288 46.8229L16.2029 46.7855C17.2224 48.0383 18.455 49.0693 19.8518 49.8441L19.9152 49.8757C21.1594 50.6015 22.6022 51.2149 24.12 51.6441L24.2525 51.6757C25.5946 52.0357 27.2016 52.3295 28.8461 52.4936L28.9786 52.5052C27.7373 53.7378 26.9107 55.3852 26.7206 57.2226L26.7178 57.2572C26.1216 57.5481 25.4275 57.7842 24.7046 57.9369L24.6442 57.9484C23.9069 58.0953 23.063 58.1788 22.1962 58.1788C22.1328 58.1788 22.0694 58.1788 22.0061 58.1788H22.0147C20.88 58.1557 19.8374 57.7871 18.9763 57.1765L18.9936 57.1881C17.9251 56.4421 17.0611 55.4745 16.4563 54.3484L16.4362 54.3052C15.8659 53.3375 15.1142 52.5368 14.2243 51.9234L14.1984 51.9061C13.5504 51.4194 12.7872 51.0392 11.9635 50.8117L11.9174 50.8002L10.9958 50.662C10.9296 50.6562 10.8518 50.6533 10.7741 50.6533C10.3709 50.6533 9.98783 50.734 9.63935 50.8751L9.65951 50.8665C9.41375 51.0047 9.33695 51.1813 9.42911 51.3964C9.54143 51.6441 9.67967 51.8572 9.84671 52.0444L9.84383 52.0415C10.0195 52.2489 10.2182 52.4303 10.4342 52.5887L10.4429 52.5944L10.7654 52.8248C11.5805 53.2511 12.2515 53.8444 12.7613 54.5615L12.7728 54.5788C13.3229 55.2613 13.8067 56.0332 14.1955 56.8597L14.2243 56.9289L14.6851 57.9887C15.0739 59.1465 15.7795 60.1141 16.7011 60.814L16.7155 60.8255C17.5795 61.4994 18.6221 61.9833 19.7597 62.2021L19.8058 62.2079C20.7562 62.3922 21.8621 62.5074 22.991 62.5305H23.0112C23.1408 62.5362 23.2906 62.5362 23.4432 62.5362C24.1949 62.5362 24.9322 62.4757 25.6522 62.3577L25.5744 62.3692L26.6342 62.1848C26.6342 63.3541 26.6419 64.7154 26.6573 66.2687C26.6726 67.822 26.6803 68.66 26.6803 68.7829V68.8232C26.6803 69.356 26.4499 69.8341 26.0813 70.1653C25.7386 70.4217 25.3066 70.5772 24.8371 70.5772C24.6211 70.5772 24.4138 70.5455 24.2208 70.485L24.2352 70.4879C10.0397 65.6236 0.0172729 52.3929 0.0172729 36.8207C0.0172729 30.2889 1.77983 24.1689 4.85855 18.91L4.76639 19.077C7.91711 13.6885 12.2803 9.32533 17.5018 6.26389L17.6688 6.17461C22.6771 3.19669 28.7136 1.43701 35.159 1.43701H35.4413H35.4269V1.43989ZM13.4237 52.318C13.5158 52.1029 13.4083 51.9186 13.1011 51.765C12.7939 51.6729 12.5942 51.7036 12.5021 51.8572C12.4099 52.0722 12.5174 52.2565 12.8246 52.4101C13.1011 52.5945 13.3008 52.5637 13.4237 52.318ZM14.855 53.8876C15.0701 53.734 15.0394 53.4882 14.7629 53.1503C14.4557 52.8738 14.2099 52.8277 14.0256 53.0121C13.8106 53.1656 13.8413 53.4114 14.1178 53.7493C14.423 54.0508 14.6688 54.0959 14.855 53.8847V53.8876ZM16.2374 55.9612C16.5139 55.7461 16.5139 55.4543 16.2374 55.0857C15.9917 54.6863 15.7306 54.5941 15.4541 54.8092C15.1776 54.9628 15.1776 55.2393 15.4541 55.6386C15.7306 56.038 15.9917 56.1455 16.2374 55.9612ZM18.1728 57.8994C18.4186 57.6537 18.3571 57.3618 17.9885 57.0239C17.6198 56.6553 17.3126 56.6092 17.0669 56.8857C16.7904 57.1314 16.8518 57.4233 17.2512 57.7612C17.6198 58.1298 17.927 58.1721 18.1728 57.8879V57.8994ZM20.8022 59.0514C20.8944 58.7135 20.6947 58.4677 20.2032 58.3141C19.7424 58.1912 19.4506 58.2988 19.3277 58.6367C19.2048 58.9746 19.4045 59.205 19.9267 59.3279C20.3875 59.5141 20.6794 59.422 20.8022 59.0514ZM23.7082 59.2818C23.7082 58.8825 23.447 58.7135 22.9248 58.7749C22.4333 58.7749 22.1875 58.9439 22.1875 59.2818C22.1875 59.6812 22.4486 59.8501 22.9709 59.7887C23.4624 59.7906 23.7082 59.6197 23.7082 59.2818ZM26.3837 58.821C26.3222 58.4831 26.0458 58.3449 25.5542 58.4063C25.0627 58.4985 24.8477 58.7289 24.9091 59.0975C24.9706 59.4661 25.247 59.589 25.7386 59.4661C26.2301 59.3433 26.4432 59.1282 26.3837 58.821Z" fill="url(#paint0_linear_77_429)"/>
<defs>
<linearGradient id="paint0_linear_77_429" x1="35.447" y1="1.43701" x2="35.447" y2="70.5887" gradientUnits="userSpaceOnUse">
<stop stop-color="#154078"/>
<stop offset="1" stop-color="#00D9FF"/>
</linearGradient>
</defs>
</svg>
