<svg width="72" height="72" viewBox="0 0 72 72" fill="none" xmlns="http://www.w3.org/2000/svg">
<g clip-path="url(#clip0_77_431)">
<path d="M18.2573 71.7454C13.9755 71.5506 11.6494 70.8381 10.1023 70.2346C8.05231 69.4364 6.59078 68.4863 5.05222 66.9499C3.51366 65.4135 2.56142 63.952 1.76753 61.902C1.16409 60.3549 0.451511 58.0288 0.256784 53.747C0.0427973 49.1184 0 47.7297 0 36.0032C0 24.2768 0.047077 22.8901 0.254644 18.2573C0.449371 13.9755 1.16623 11.6537 1.76539 10.1023C2.56356 8.05231 3.5158 6.59078 5.05008 5.05008C6.5865 3.51366 8.04803 2.55928 10.1002 1.76539C11.6473 1.16195 13.9733 0.449371 18.2552 0.254644C22.8858 0.0427973 24.2768 0 35.9989 0C47.7254 0 49.112 0.047077 53.7448 0.254644C58.0267 0.449371 60.3484 1.16623 61.8998 1.76539C63.9498 2.55928 65.4114 3.51366 66.9499 5.05008C68.4885 6.5865 69.4364 8.05017 70.2346 10.1002C70.8381 11.6473 71.5506 13.9733 71.7454 18.2552C71.9572 22.888 72 24.2746 72 36.0011C72 47.7232 71.9572 49.1142 71.7454 53.747C71.5506 58.0288 70.8338 60.3549 70.2346 61.902C69.4364 63.952 68.4863 65.4135 66.9499 66.9499C65.4135 68.4863 63.9498 69.4364 61.8998 70.2346C60.3527 70.8381 58.0267 71.5506 53.7448 71.7454C49.1163 71.9572 47.7254 72 35.9989 72C24.2768 72 22.8858 71.9593 18.2573 71.7454Z" fill="url(#paint0_radial_77_431)"/>
<path d="M18.2573 71.7454C13.9755 71.5506 11.6494 70.8381 10.1023 70.2346C8.05231 69.4364 6.59078 68.4863 5.05222 66.9499C3.51366 65.4135 2.56142 63.952 1.76753 61.902C1.16409 60.3549 0.451511 58.0288 0.256784 53.747C0.0427973 49.1184 0 47.7297 0 36.0032C0 24.2768 0.047077 22.8901 0.254644 18.2573C0.449371 13.9755 1.16623 11.6537 1.76539 10.1023C2.56356 8.05231 3.5158 6.59078 5.05008 5.05008C6.5865 3.51366 8.04803 2.55928 10.1002 1.76539C11.6473 1.16195 13.9733 0.449371 18.2552 0.254644C22.8858 0.0427973 24.2768 0 35.9989 0C47.7254 0 49.112 0.047077 53.7448 0.254644C58.0267 0.449371 60.3484 1.16623 61.8998 1.76539C63.9498 2.55928 65.4114 3.51366 66.9499 5.05008C68.4885 6.5865 69.4364 8.05017 70.2346 10.1002C70.8381 11.6473 71.5506 13.9733 71.7454 18.2552C71.9572 22.888 72 24.2746 72 36.0011C72 47.7232 71.9572 49.1142 71.7454 53.747C71.5506 58.0288 70.8338 60.3549 70.2346 61.902C69.4364 63.952 68.4863 65.4135 66.9499 66.9499C65.4135 68.4863 63.9498 69.4364 61.8998 70.2346C60.3527 70.8381 58.0267 71.5506 53.7448 71.7454C49.1163 71.9572 47.7254 72 35.9989 72C24.2768 72 22.8858 71.9594 18.2573 71.7454Z" fill="url(#paint1_linear_77_431)"/>
<path d="M27.1602 36.1533C27.1602 31.2293 31.1509 27.2365 36.0749 27.2365C40.9989 27.2365 44.9917 31.2293 44.9917 36.1533C44.9917 41.0774 40.9989 45.0701 36.0749 45.0701C31.1509 45.0701 27.1602 41.0774 27.1602 36.1533ZM22.34 36.1533C22.34 43.7391 28.4891 49.8883 36.0749 49.8883C43.6607 49.8883 49.8098 43.7391 49.8098 36.1533C49.8098 28.5675 43.6607 22.4184 36.0749 22.4184C28.4891 22.4184 22.3402 28.5671 22.3402 36.1533M47.144 21.8738C47.1437 22.5086 47.3317 23.1293 47.6842 23.6573C48.0367 24.1853 48.5378 24.5969 49.1243 24.8401C49.7107 25.0832 50.356 25.1471 50.9787 25.0235C51.6014 24.8999 52.1735 24.5944 52.6225 24.1457C53.0716 23.6969 53.3776 23.1251 53.5017 22.5025C53.6258 21.88 53.5624 21.2345 53.3197 20.6479C53.077 20.0613 52.6658 19.5599 52.1381 19.207C51.6104 18.854 50.9899 18.6655 50.3551 18.6653H50.3538C49.5028 18.6657 48.6868 19.0038 48.085 19.6054C47.4832 20.207 47.1447 21.0229 47.144 21.8738ZM25.2686 57.926C22.6607 57.8073 21.2433 57.3729 20.3013 57.0059C19.0525 56.5197 18.1615 55.9407 17.2246 55.0051C16.2878 54.0696 15.7079 53.1794 15.2239 51.9305C14.8566 50.989 14.4223 49.5711 14.3037 46.9633C14.174 44.1438 14.1481 43.2968 14.1481 36.1538C14.1481 29.0107 14.1762 28.1661 14.3037 25.3442C14.4225 22.7364 14.8601 21.3213 15.2239 20.377C15.71 19.1281 16.2891 18.2371 17.2246 17.3003C18.1602 16.3634 19.0504 15.7835 20.3013 15.2995C21.2429 14.9323 22.6607 14.4979 25.2686 14.3794C28.0881 14.2497 28.935 14.2238 36.0749 14.2238C43.2148 14.2238 44.0626 14.2514 46.8844 14.3798C49.4923 14.4985 50.9074 14.9362 51.8517 15.2999C53.1005 15.784 53.9915 16.3652 54.9284 17.3007C55.8652 18.2362 56.443 19.1286 56.9292 20.3774C57.2964 21.3189 57.7307 22.7368 57.8493 25.3447C57.979 28.1665 58.0049 29.0111 58.0049 36.1542C58.0049 43.2973 57.979 44.1419 57.8493 46.9637C57.7305 49.5716 57.294 50.989 56.9292 51.931C56.443 53.1798 55.8639 54.0708 54.9284 55.0055C53.9928 55.9402 53.1005 56.5201 51.8517 57.0063C50.9101 57.3735 49.4923 57.8079 46.8844 57.9264C44.0649 58.0561 43.218 58.082 36.0749 58.082C28.9318 58.082 28.0872 58.0561 25.2686 57.9264M25.0471 9.56702C22.1996 9.69669 20.2538 10.1482 18.5545 10.8094C16.7958 11.4923 15.305 12.4083 13.8162 13.8947C12.3275 15.381 11.4138 16.8721 10.731 18.633C10.0698 20.3333 9.61826 22.278 9.48859 25.1255C9.35677 27.9776 9.3266 28.8893 9.3266 36.1533C9.3266 43.4173 9.35677 44.3291 9.48859 47.1811C9.61826 50.0289 10.0698 51.9733 10.731 53.6737C11.4138 55.4324 12.3278 56.9263 13.8162 58.412C15.3047 59.8977 16.7937 60.8125 18.5545 61.4972C20.257 62.1585 22.1996 62.61 25.0471 62.7396C27.9006 62.8693 28.8109 62.9016 36.0749 62.9016C43.3389 62.9016 44.2507 62.8715 47.1027 62.7396C49.9504 62.61 51.8949 62.1585 53.5952 61.4972C55.354 60.8125 56.8448 59.8983 58.3335 58.412C59.8223 56.9256 60.734 55.4324 61.4188 53.6737C62.08 51.9733 62.5337 50.0286 62.6612 47.1811C62.7909 44.327 62.8211 43.4173 62.8211 36.1533C62.8211 28.8893 62.7909 27.9776 62.6612 25.1255C62.5315 22.2778 62.08 20.3322 61.4188 18.633C60.734 16.8742 59.8199 15.3834 58.3335 13.8947C56.8472 12.406 55.354 11.4923 53.5974 10.8094C51.8949 10.1482 49.9502 9.69455 47.1048 9.56702C44.2524 9.4367 43.341 9.40503 36.0781 9.40503C28.8152 9.40503 27.9017 9.4352 25.0482 9.56702" fill="black"/>
</g>
<defs>
<radialGradient id="paint0_radial_77_431" cx="0" cy="0" r="1" gradientUnits="userSpaceOnUse" gradientTransform="translate(4.65977 70.4227) scale(91.4133)">
<stop offset="0.09" stop-color="#FA8F21"/>
<stop offset="0.78" stop-color="#D82D7E"/>
</radialGradient>
<linearGradient id="paint1_linear_77_431" x1="36" y1="0" x2="36" y2="72" gradientUnits="userSpaceOnUse">
<stop stop-color="#154078"/>
<stop offset="1" stop-color="#00D9FF"/>
</linearGradient>
<clipPath id="clip0_77_431">
<rect width="72" height="72" fill="white"/>
</clipPath>
</defs>
</svg>
