<svg width="28" height="32" viewBox="0 0 28 32" fill="none" xmlns="http://www.w3.org/2000/svg">
<g clip-path="url(#clip0_83_842)">
<path d="M0.32666 0.382174C3.43867 0.249607 6.55693 0.42005 9.67206 0.366392C13.1087 0.255919 16.5422 0.347454 19.982 0.360079C22.7101 0.366392 25.4381 0.347454 28.1662 0.369548C27.3078 9.94276 26.4432 19.516 25.6473 29.0955C21.9921 30.1466 18.3339 31.1819 14.6788 32.2266C14.2105 32.4223 13.7299 32.2392 13.2804 32.1161C9.80628 31.1061 6.33219 30.1055 2.85185 29.1334C1.94665 19.557 1.09452 9.97117 0.32666 0.382174ZM14.3042 2.87885C14.1762 7.60075 14.2855 12.3227 14.248 17.0446C14.2823 21.3624 14.1856 25.6835 14.2979 30.0014C17.3694 29.2691 20.4002 28.3695 23.4311 27.4826C24.1927 19.2856 24.9356 11.0885 25.5724 2.882C21.8173 2.84413 18.0592 2.88832 14.3042 2.87885ZM10.3962 21.3183C8.59207 20.8196 6.80976 20.2451 4.98063 19.8506C4.92757 20.949 4.9463 22.0474 5.07116 23.1395C7.7493 23.7991 10.3712 24.6671 13.0525 25.3142C13.0712 19.0615 13.0431 12.8056 13.065 6.55284C12.191 6.53075 11.317 6.51812 10.443 6.49918C10.3432 11.4357 10.4368 16.3786 10.3962 21.3183Z" fill="#D6BA32"/>
<path d="M14.3052 2.87818C18.0603 2.88764 21.8184 2.84346 25.5734 2.88133C24.9366 11.0878 24.1938 19.2849 23.4321 27.4819C20.4013 28.3689 17.3704 29.2684 14.299 30.0007C14.1866 25.6828 14.2834 21.3618 14.2491 17.0439C14.2865 12.322 14.1773 7.60008 14.3052 2.87818ZM15.3571 6.54901C15.3696 10.6144 15.3728 14.6829 15.3571 18.7483C17.1925 18.4485 19.0216 18.1044 20.8508 17.7667C20.8227 18.7136 20.7852 19.6605 20.7446 20.6074C18.9623 21.0872 17.1832 21.5827 15.3915 22.0278C15.3634 23.1199 15.3603 24.212 15.3696 25.3072C17.6264 24.7959 19.8488 24.152 22.09 23.5807C22.3709 23.4481 22.9109 23.4639 22.8859 23.0189C23.1575 20.0961 23.326 17.1607 23.5882 14.2316C21.731 14.3862 19.8925 14.7019 18.0353 14.8313C18.0197 13.171 18.0166 11.5108 18.0415 9.85056C19.9955 9.85056 21.9464 9.85056 23.9004 9.85371C24.0252 8.74583 24.1345 7.6348 24.2187 6.52376C21.2659 6.53639 18.31 6.49535 15.3571 6.54901Z" fill="#FFDA3E"/>
<path d="M10.3955 21.3209C10.4361 16.3812 10.3424 11.4384 10.4423 6.50183C11.3163 6.52077 12.1903 6.5334 13.0643 6.55549C13.0424 12.8082 13.0705 19.0641 13.0518 25.3168C10.3705 24.6698 7.74856 23.8018 5.07042 23.1421C4.94557 22.05 4.92684 20.9516 4.97991 19.8532C6.80903 20.2477 8.59134 20.8222 10.3955 21.3209Z" fill="#EBEBEB"/>
</g>
<defs>
<clipPath id="clip0_83_842">
<rect width="28" height="32" fill="white"/>
</clipPath>
</defs>
</svg>
