<svg width="24" height="24" viewBox="0 0 24 24" fill="none" xmlns="http://www.w3.org/2000/svg">
<path d="M11.875 20.4999C11.9583 20.4999 12.0542 20.4791 12.1625 20.4374C12.2708 20.3957 12.3583 20.3416 12.425 20.2749L20.85 11.8249C21.0667 11.6082 21.2292 11.3624 21.3375 11.0874C21.4458 10.8124 21.5 10.5332 21.5 10.2499C21.5 9.96657 21.4458 9.68324 21.3375 9.3999C21.2292 9.11657 21.0667 8.86657 20.85 8.6499L16.35 4.1499C16.1333 3.93324 15.8833 3.77074 15.6 3.6624C15.3167 3.55407 15.0333 3.4999 14.75 3.4999C14.4667 3.4999 14.1875 3.55407 13.9125 3.6624C13.6375 3.77074 13.3917 3.93324 13.175 4.1499L12.725 4.5999L14.75 6.6499C14.9667 6.88324 15.1583 7.15407 15.325 7.4624C15.4917 7.77074 15.575 8.10824 15.575 8.4749C15.575 9.10824 15.3292 9.66657 14.8375 10.1499C14.3458 10.6332 13.7833 10.8749 13.15 10.8749C12.7333 10.8749 12.3875 10.8124 12.1125 10.6874C11.8375 10.5624 11.5833 10.3832 11.35 10.1499L9.525 8.3249L5 12.8499C4.91666 12.9332 4.85833 13.0207 4.825 13.1124C4.79166 13.2041 4.775 13.2999 4.775 13.3999C4.775 13.6166 4.84583 13.7957 4.9875 13.9374C5.12916 14.0791 5.30833 14.1499 5.525 14.1499C5.625 14.1499 5.72083 14.1249 5.8125 14.0749C5.90416 14.0249 5.98333 13.9666 6.05 13.8999L8.975 10.9749C9.125 10.8249 9.3 10.7499 9.5 10.7499C9.7 10.7499 9.875 10.8249 10.025 10.9749C10.175 11.1249 10.25 11.2999 10.25 11.4999C10.25 11.6999 10.175 11.8749 10.025 12.0249L7.125 14.9249C7.04166 15.0082 6.98333 15.0999 6.95 15.1999C6.91666 15.2999 6.9 15.3999 6.9 15.4999C6.9 15.6999 6.975 15.8749 7.125 16.0249C7.275 16.1749 7.45 16.2499 7.65 16.2499C7.75 16.2499 7.84583 16.2291 7.9375 16.1874C8.02916 16.1457 8.10833 16.0916 8.175 16.0249L11.1 13.0999C11.25 12.9499 11.425 12.8749 11.625 12.8749C11.825 12.8749 12 12.9499 12.15 13.0999C12.3 13.2499 12.375 13.4249 12.375 13.6249C12.375 13.8249 12.3 13.9999 12.15 14.1499L9.25 17.0499C9.18333 17.1166 9.12916 17.2041 9.0875 17.3124C9.04583 17.4207 9.025 17.5249 9.025 17.6249C9.025 17.8249 9.1 17.9999 9.25 18.1499C9.4 18.2999 9.575 18.3749 9.775 18.3749C9.875 18.3749 9.96666 18.3582 10.05 18.3249C10.1333 18.2916 10.2167 18.2332 10.3 18.1499L13.225 15.2249C13.375 15.0749 13.55 14.9999 13.75 14.9999C13.95 14.9999 14.125 15.0749 14.275 15.2249C14.425 15.3749 14.5 15.5499 14.5 15.7499C14.5 15.9499 14.425 16.1249 14.275 16.2749L11.35 19.1999C11.2667 19.2832 11.2083 19.3749 11.175 19.4749C11.1417 19.5749 11.125 19.6666 11.125 19.7499C11.125 19.9832 11.1917 20.1666 11.325 20.2999C11.4583 20.4332 11.6417 20.4999 11.875 20.4999ZM11.875 21.9999C11.325 21.9999 10.8333 21.7957 10.4 21.3874C9.96666 20.9791 9.70833 20.4749 9.625 19.8749C9.05833 19.7916 8.58333 19.5582 8.2 19.1749C7.81666 18.7916 7.58333 18.3166 7.5 17.7499C6.93333 17.6666 6.4625 17.4291 6.0875 17.0374C5.7125 16.6457 5.48333 16.1749 5.4 15.6249C4.78333 15.5416 4.275 15.2916 3.875 14.8749C3.475 14.4582 3.275 13.9582 3.275 13.3749C3.275 13.0916 3.32916 12.8082 3.4375 12.5249C3.54583 12.2416 3.70833 11.9916 3.925 11.7749L8.475 7.2249C8.75833 6.94157 9.10833 6.7999 9.525 6.7999C9.94166 6.7999 10.2917 6.94157 10.575 7.2249L12.275 8.9249C12.4083 9.05824 12.5542 9.1624 12.7125 9.2374C12.8708 9.3124 13.025 9.3499 13.175 9.3499C13.3917 9.3499 13.5958 9.25407 13.7875 9.0624C13.9792 8.87074 14.075 8.66657 14.075 8.4499C14.075 8.3499 14.0458 8.2374 13.9875 8.1124C13.9292 7.9874 13.8333 7.85824 13.7 7.7249L10.125 4.1499C9.90833 3.93324 9.65833 3.77074 9.375 3.6624C9.09166 3.55407 8.80833 3.4999 8.525 3.4999C8.24166 3.4999 7.9625 3.55407 7.6875 3.6624C7.4125 3.77074 7.16666 3.93324 6.95 4.1499L3.15 7.9499C2.81666 8.28324 2.6125 8.6874 2.5375 9.1624C2.4625 9.6374 2.51666 10.0916 2.7 10.5249C2.78333 10.7082 2.78333 10.8957 2.7 11.0874C2.61666 11.2791 2.48333 11.4166 2.3 11.4999C2.11666 11.5832 1.925 11.5832 1.725 11.4999C1.525 11.4166 1.38333 11.2832 1.3 11.0999C1.01666 10.3499 0.93333 9.60407 1.05 8.8624C1.16666 8.12074 1.51666 7.45824 2.1 6.8749L5.875 3.0999C6.24166 2.73324 6.65833 2.4624 7.125 2.2874C7.59166 2.1124 8.06666 2.0249 8.55 2.0249C9.03333 2.0249 9.50416 2.1124 9.9625 2.2874C10.4208 2.4624 10.8333 2.73324 11.2 3.0999L11.65 3.5499L12.1 3.0999C12.4667 2.73324 12.8833 2.4624 13.35 2.2874C13.8167 2.1124 14.2917 2.0249 14.775 2.0249C15.2583 2.0249 15.7292 2.1124 16.1875 2.2874C16.6458 2.4624 17.0583 2.73324 17.425 3.0999L21.9 7.5749C22.2667 7.94157 22.5417 8.35824 22.725 8.8249C22.9083 9.29157 23 9.76657 23 10.2499C23 10.7332 22.9083 11.2041 22.725 11.6624C22.5417 12.1207 22.2667 12.5332 21.9 12.8999L13.475 21.3249C13.2583 21.5416 13.0125 21.7082 12.7375 21.8249C12.4625 21.9416 12.175 21.9999 11.875 21.9999Z" fill="url(#paint0_linear_79_725)"/>
<defs>
<linearGradient id="paint0_linear_79_725" x1="11.9995" y1="2.0249" x2="11.9995" y2="21.9999" gradientUnits="userSpaceOnUse">
<stop stop-color="#154078"/>
<stop offset="1" stop-color="#00D9FF"/>
</linearGradient>
</defs>
</svg>
