<svg width="225" height="40" viewBox="0 0 225 40" fill="none" xmlns="http://www.w3.org/2000/svg">
<path d="M7.872 5.664V32.688H20.832L20.016 38.928H0V5.664H7.872Z" fill="#131313"/>
<path d="M45.2663 38.928H38.6903L38.3543 35.712C36.4983 38.4 33.9223 39.744 30.6263 39.744C28.2903 39.744 26.5143 39.04 25.2983 37.632C24.1143 36.224 23.5222 34.256 23.5222 31.728V13.44H31.1063V30.768C31.1063 32.016 31.2983 32.896 31.6823 33.408C32.0983 33.888 32.7222 34.128 33.5542 34.128C35.1542 34.128 36.5303 33.136 37.6823 31.152V13.44H45.2663V38.928Z" fill="#131313"/>
<path d="M62.271 12.624C64.031 12.624 65.615 12.88 67.023 13.392C68.431 13.904 69.759 14.688 71.007 15.744L67.743 20.256C66.143 19.04 64.527 18.432 62.895 18.432C61.199 18.432 59.919 19.056 59.055 20.304C58.191 21.552 57.759 23.568 57.759 26.352C57.759 29.04 58.191 30.944 59.055 32.064C59.919 33.184 61.167 33.744 62.799 33.744C63.663 33.744 64.447 33.616 65.151 33.36C65.855 33.072 66.703 32.624 67.695 32.016L71.007 36.72C68.479 38.736 65.615 39.744 62.415 39.744C59.823 39.744 57.583 39.2 55.695 38.112C53.807 36.992 52.351 35.44 51.327 33.456C50.303 31.44 49.791 29.088 49.791 26.4C49.791 23.712 50.303 21.328 51.327 19.248C52.351 17.168 53.807 15.552 55.695 14.4C57.583 13.216 59.775 12.624 62.271 12.624Z" fill="#131313"/>
<path d="M93.987 31.536C93.987 32.496 94.115 33.2 94.371 33.648C94.659 34.096 95.107 34.432 95.715 34.656L94.131 39.6C92.563 39.472 91.283 39.136 90.291 38.592C89.299 38.016 88.531 37.12 87.987 35.904C86.323 38.464 83.763 39.744 80.307 39.744C77.779 39.744 75.763 39.008 74.259 37.536C72.755 36.064 72.003 34.144 72.003 31.776C72.003 28.992 73.027 26.864 75.075 25.392C77.123 23.92 80.083 23.184 83.955 23.184H86.547V22.08C86.547 20.576 86.227 19.552 85.587 19.008C84.947 18.432 83.827 18.144 82.227 18.144C81.395 18.144 80.387 18.272 79.203 18.528C78.019 18.752 76.803 19.072 75.555 19.488L73.827 14.496C75.427 13.888 77.059 13.424 78.723 13.104C80.419 12.784 81.987 12.624 83.427 12.624C87.075 12.624 89.747 13.376 91.443 14.88C93.139 16.384 93.987 18.64 93.987 21.648V31.536ZM82.515 34.32C84.243 34.32 85.587 33.504 86.547 31.872V27.36H84.675C82.947 27.36 81.651 27.664 80.787 28.272C79.955 28.88 79.539 29.824 79.539 31.104C79.539 32.128 79.795 32.928 80.307 33.504C80.851 34.048 81.587 34.32 82.515 34.32Z" fill="#131313"/>
<path d="M108.535 12.624C110.359 12.624 112.071 12.896 113.671 13.44C115.271 13.984 116.679 14.752 117.895 15.744L115.111 20.016C113.031 18.704 110.935 18.048 108.823 18.048C107.831 18.048 107.063 18.224 106.519 18.576C106.007 18.896 105.751 19.36 105.751 19.968C105.751 20.448 105.863 20.848 106.087 21.168C106.343 21.456 106.839 21.76 107.575 22.08C108.311 22.4 109.447 22.784 110.983 23.232C113.639 24 115.607 25.008 116.887 26.256C118.199 27.472 118.855 29.168 118.855 31.344C118.855 33.072 118.359 34.576 117.367 35.856C116.375 37.104 115.015 38.064 113.287 38.736C111.559 39.408 109.639 39.744 107.527 39.744C105.383 39.744 103.383 39.408 101.527 38.736C99.7031 38.064 98.1511 37.136 96.8711 35.952L100.567 31.824C102.711 33.488 104.967 34.32 107.335 34.32C108.487 34.32 109.383 34.112 110.023 33.696C110.695 33.28 111.031 32.688 111.031 31.92C111.031 31.312 110.903 30.832 110.647 30.48C110.391 30.128 109.895 29.808 109.159 29.52C108.423 29.2 107.255 28.816 105.655 28.368C103.127 27.632 101.239 26.608 99.9911 25.296C98.7431 23.984 98.1191 22.352 98.1191 20.4C98.1191 18.928 98.5351 17.616 99.3671 16.464C100.231 15.28 101.447 14.352 103.015 13.68C104.615 12.976 106.455 12.624 108.535 12.624Z" fill="#131313"/>
<path d="M143.561 5.664C148.777 5.664 152.953 6.848 156.089 9.216C159.257 11.552 160.841 15.856 160.841 22.128C160.841 28.304 159.305 32.656 156.233 35.184C153.161 37.68 149.177 38.928 144.281 38.928H134.297V5.664H143.561ZM142.169 11.376V33.216H144.761C147.353 33.216 149.321 32.416 150.665 30.816C152.009 29.184 152.681 26.288 152.681 22.128C152.681 19.28 152.345 17.072 151.673 15.504C151.001 13.936 150.089 12.864 148.937 12.288C147.785 11.68 146.361 11.376 144.665 11.376H142.169Z" fill="#131313"/>
<path d="M173.003 13.44V38.928H165.419V13.44H173.003ZM169.163 0C170.475 0 171.546 0.416 172.378 1.248C173.242 2.048 173.674 3.072 173.674 4.32C173.674 5.568 173.242 6.608 172.378 7.44C171.546 8.24 170.475 8.64 169.163 8.64C167.851 8.64 166.779 8.24 165.947 7.44C165.115 6.608 164.699 5.568 164.699 4.32C164.699 3.072 165.115 2.048 165.947 1.248C166.779 0.416 167.851 0 169.163 0Z" fill="#131313"/>
<path d="M199.221 31.536C199.221 32.496 199.349 33.2 199.605 33.648C199.893 34.096 200.341 34.432 200.949 34.656L199.365 39.6C197.797 39.472 196.517 39.136 195.525 38.592C194.533 38.016 193.765 37.12 193.221 35.904C191.557 38.464 188.997 39.744 185.541 39.744C183.013 39.744 180.997 39.008 179.493 37.536C177.989 36.064 177.237 34.144 177.237 31.776C177.237 28.992 178.261 26.864 180.309 25.392C182.357 23.92 185.317 23.184 189.189 23.184H191.781V22.08C191.781 20.576 191.461 19.552 190.821 19.008C190.181 18.432 189.061 18.144 187.461 18.144C186.629 18.144 185.621 18.272 184.437 18.528C183.253 18.752 182.037 19.072 180.789 19.488L179.061 14.496C180.661 13.888 182.293 13.424 183.957 13.104C185.653 12.784 187.221 12.624 188.661 12.624C192.309 12.624 194.981 13.376 196.677 14.88C198.373 16.384 199.221 18.64 199.221 21.648V31.536ZM187.749 34.32C189.477 34.32 190.821 33.504 191.781 31.872V27.36H189.909C188.181 27.36 186.885 27.664 186.021 28.272C185.189 28.88 184.773 29.824 184.773 31.104C184.773 32.128 185.029 32.928 185.541 33.504C186.085 34.048 186.821 34.32 187.749 34.32Z" fill="#131313"/>
<path d="M213.77 12.624C215.594 12.624 217.306 12.896 218.906 13.44C220.506 13.984 221.914 14.752 223.13 15.744L220.346 20.016C218.266 18.704 216.169 18.048 214.057 18.048C213.065 18.048 212.297 18.224 211.753 18.576C211.241 18.896 210.986 19.36 210.986 19.968C210.986 20.448 211.098 20.848 211.322 21.168C211.578 21.456 212.073 21.76 212.809 22.08C213.545 22.4 214.681 22.784 216.217 23.232C218.873 24 220.842 25.008 222.122 26.256C223.434 27.472 224.09 29.168 224.09 31.344C224.09 33.072 223.594 34.576 222.602 35.856C221.61 37.104 220.249 38.064 218.521 38.736C216.793 39.408 214.874 39.744 212.762 39.744C210.618 39.744 208.618 39.408 206.762 38.736C204.938 38.064 203.385 37.136 202.105 35.952L205.801 31.824C207.945 33.488 210.202 34.32 212.57 34.32C213.722 34.32 214.618 34.112 215.258 33.696C215.93 33.28 216.266 32.688 216.266 31.92C216.266 31.312 216.138 30.832 215.882 30.48C215.626 30.128 215.129 29.808 214.393 29.52C213.657 29.2 212.489 28.816 210.889 28.368C208.361 27.632 206.473 26.608 205.225 25.296C203.977 23.984 203.354 22.352 203.354 20.4C203.354 18.928 203.77 17.616 204.602 16.464C205.466 15.28 206.681 14.352 208.249 13.68C209.849 12.976 211.69 12.624 213.77 12.624Z" fill="#131313"/>
</svg>
