<svg width="72" height="72" viewBox="0 0 72 72" fill="none" xmlns="http://www.w3.org/2000/svg">
<path d="M36 5.97852C52.5684 5.97852 66 19.3619 66 35.8711C66 52.3801 52.5684 65.7636 36 65.7636C30.7091 65.7636 25.7313 64.3965 21.4108 61.9963L20.4951 61.4663L11.3993 64.1321C9.20808 64.7743 7.16466 62.8728 7.55961 60.7097L7.63743 60.3835L10.3127 51.3204C7.57515 46.8099 6 41.5196 6 35.8711C6 19.3619 19.4314 5.97852 36 5.97852ZM36 11.957C22.7452 11.957 12 22.6637 12 35.8711C12 40.5848 13.3656 44.9715 15.7229 48.6704C16.3181 49.6045 16.5712 50.7518 16.3696 51.8902L16.255 52.3768L14.93 56.8655L19.4348 55.5454C20.7322 55.1652 22.0834 55.3978 23.1545 56.0754C26.8669 58.4244 31.2693 59.7851 36 59.7851C49.2549 59.7851 60 49.0785 60 35.8711C60 22.6637 49.2549 11.957 36 11.957ZM27.3049 21.475C27.9524 21.1985 28.7367 21.2491 29.3567 21.6998C30.87 22.7997 32.0715 24.275 33.1032 25.7179L34.0837 27.1348C34.2395 27.3642 34.3918 27.5888 34.5414 27.8069C35.089 28.6048 35.0259 29.6651 34.4055 30.3886L34.1781 30.6165L31.4079 32.6666C31.1334 32.8698 31.0419 33.239 31.2066 33.5379C31.8336 34.6748 32.9502 36.3664 34.2279 37.6395C35.5071 38.9141 37.2852 40.0988 38.5044 40.7935C38.7679 40.9437 39.0881 40.8963 39.3031 40.7007L39.4182 40.566L41.2206 37.8305C41.9115 36.9143 43.2021 36.714 44.1402 37.3609L45.7688 38.4921C47.3871 39.643 48.9451 40.8802 50.1765 42.4516C50.6616 43.0707 50.7336 43.8799 50.4444 44.5525C49.2564 47.3148 46.2495 49.6674 43.122 49.5526L42.6464 49.5253L42.0706 49.4684C41.9667 49.456 41.8589 49.442 41.7473 49.4262L41.0342 49.3084C38.2631 48.787 33.8178 47.2213 29.2148 42.6348C24.6119 38.0484 23.0405 33.6189 22.5172 30.8577L22.399 30.1471L22.3238 29.5261L22.2827 29.0015C22.2782 28.9224 22.2747 28.8477 22.2721 28.7774C22.1569 25.6566 24.5306 22.6598 27.3049 21.475Z" fill="url(#paint0_linear_77_426)"/>
<defs>
<linearGradient id="paint0_linear_77_426" x1="36" y1="5.97852" x2="36" y2="65.7636" gradientUnits="userSpaceOnUse">
<stop stop-color="#154078"/>
<stop offset="1" stop-color="#00D9FF"/>
</linearGradient>
</defs>
</svg>
